<svg width="80" height="88" viewBox="0 0 80 88" fill="none" xmlns="http://www.w3.org/2000/svg">
<path fill-rule="evenodd" clip-rule="evenodd" d="M72.9276 76.3784C74.7167 75.3352 76.2385 73.8899 77.3726 72.157C78.5067 70.4241 79.2219 68.451 79.4618 66.3939C79.9594 62.3654 79.2162 58.281 77.3314 54.686C75.5896 51.3705 72.8743 48.6679 69.5506 46.9419C66.138 45.2516 62.2375 44.823 58.5394 45.7318C55.4897 46.3828 52.5651 47.5219 49.8785 49.1052C48.0085 50.2346 46.3658 51.7049 45.0348 53.4393C43.6776 55.4248 42.7346 57.6634 42.2621 60.0215C41.7896 62.3797 41.7973 64.8088 42.2847 67.1639C42.6427 69.5188 43.5154 71.7658 44.8406 73.745C46.1658 75.7243 47.9109 77.3871 49.9519 78.6151C52.2169 79.8048 54.7343 80.4335 57.2927 80.4485C60.8857 80.4684 64.4615 79.9493 67.9005 78.9084C68.0261 78.8867 68.1448 78.8354 68.2468 78.759C68.3487 78.6825 68.4311 78.5829 68.4872 78.4684C68.9639 79.5318 69.4039 80.5585 69.9906 81.5852C70.2913 82.1621 70.6457 82.7011 71.0539 83.2022C71.4206 83.6789 71.8606 84.1555 72.3006 84.6322C73.331 85.6956 74.4677 86.6526 75.608 87.6793C75.7442 87.8081 75.9093 87.9023 76.0894 87.9542C76.2696 88.006 76.4595 88.014 76.6433 87.9774C76.8272 87.9407 76.9996 87.8606 77.1461 87.7437C77.2926 87.6267 77.4089 87.4764 77.4854 87.3053C77.5775 87.0912 77.6016 86.8539 77.5544 86.6257C77.5071 86.3974 77.3909 86.1892 77.2214 86.0292C76.488 84.7459 75.828 83.4992 75.058 82.3588C74.7647 81.8455 74.398 81.3322 74.0313 80.8188C73.6695 80.3178 73.2764 79.8402 72.8543 79.3888C72.1734 78.6748 71.4639 77.9885 70.7276 77.3318C71.4952 77.0995 72.2285 76.7817 72.9276 76.3784ZM57.2927 77.9551C55.1877 77.8169 53.1415 77.2026 51.3086 76.1584C49.7262 75.0688 48.4008 73.6469 47.4249 71.992C46.4489 70.3372 45.846 68.4892 45.6581 66.5772C45.3301 64.7055 45.3784 62.7872 45.8002 60.9343C46.222 59.0815 47.0089 57.3313 48.1148 55.786C49.4385 54.103 51.1216 52.739 53.0356 51.7893C55.0696 50.7859 57.213 50.0218 59.4231 49.5122C62.2525 48.7757 65.2501 49.048 67.9005 50.2823C70.6333 51.5749 72.8917 53.6922 74.3577 56.336C76.125 59.2548 76.9097 62.6648 76.5944 66.0639C76.4796 67.7147 75.9785 69.3155 75.1313 70.7371C74.2842 72.1588 73.1149 73.3614 71.7176 74.248C71.0867 74.6467 70.4094 74.9669 69.7009 75.2014C65.5868 76.5581 64.8168 78.5418 57.366 77.9514L57.2927 77.9551Z" fill="#020202"/>
<path fill-rule="evenodd" clip-rule="evenodd" d="M41.5844 76.0481C39.8977 76.0481 36.484 76.2681 32.7403 76.2681H19.4154L12.0746 76.0847L8.22448 75.6081C5.10409 74.9847 3.92707 73.7344 3.92707 71.934C4.76369 67.742 5.99257 63.638 7.59747 59.6761C8.70771 55.1434 9.45564 50.5295 9.83418 45.8782C10.2742 40.8217 10.2742 35.736 9.83418 30.6832C9.1375 23.3424 7.81748 15.7816 6.68079 8.40415C6.63695 8.20442 6.53234 8.02317 6.38133 7.88529C6.23032 7.74741 6.04032 7.65968 5.83744 7.63414C12.4412 6.79079 19.1587 5.61744 25.9128 4.84742C30.5476 4.26074 35.2263 4.01141 39.8941 4.11041C40.8841 4.11041 43.5645 3.8904 46.1348 3.92707C47.3449 3.92707 48.4449 3.92707 48.8849 4.22041C51.8219 6.64046 54.9423 9.39417 57.8427 12.2946C59.6834 14.2257 61.4202 16.2449 63.0531 18.352C63.2732 18.6087 63.0531 19.232 63.0531 19.8187V22.4221L62.8332 39.6007C62.8816 39.8718 63.0239 40.1172 63.2351 40.2939C63.4462 40.4706 63.7128 40.5675 63.9882 40.5675C64.2635 40.5675 64.5301 40.4706 64.7413 40.2939C64.9524 40.1172 65.0947 39.8718 65.1432 39.6007L66.1369 22.4624C66.1981 21.2397 66.1981 20.0147 66.1369 18.792C66.2187 17.8652 66.0275 16.9347 65.5869 16.1153C63.4909 13.345 61.2099 10.7198 58.7594 8.25749C56.3922 5.77535 53.8927 3.42277 51.2719 1.21002C50.066 0.439748 48.6693 0.0207375 47.2385 0C44.5581 0 41.0344 0.220004 39.8941 0C36.2057 0.0901054 32.5279 0.433139 28.8865 1.02669C20.442 2.16337 12.0746 4.29375 3.92707 5.6871C3.68899 5.76919 3.48628 5.93048 3.35281 6.14404C3.21934 6.3576 3.16318 6.61048 3.19373 6.86046C3.23808 7.13041 3.38477 7.37288 3.6033 7.53746C3.82183 7.70204 4.09538 7.77606 4.36708 7.74414H5.10043C4.90813 7.82271 4.74676 7.96194 4.64086 8.14065C4.53496 8.31935 4.49033 8.52776 4.51375 8.73416C5.32043 16.075 6.31045 23.4158 6.64412 30.7566C6.91179 35.6553 6.75412 40.5651 6.16745 45.4382C5.91077 47.6749 5.58077 49.9116 5.17743 52.1153C4.77409 54.3153 4.18741 56.519 3.67407 58.7227C2.57038 63.3098 0 68.2269 0 71.934C0 75.6411 1.72336 78.1748 7.3408 79.2748L11.8545 79.6048H19.199C21.5457 79.6048 27.3465 79.3848 32.5973 79.1648C36.264 79.1648 39.9344 78.8348 41.5881 78.6148C41.7408 78.6057 41.8901 78.5658 42.0271 78.4976C42.1641 78.4293 42.2858 78.3342 42.3851 78.2178C42.4844 78.1014 42.5592 77.9661 42.6049 77.8201C42.6507 77.6741 42.6665 77.5203 42.6514 77.3681C42.6718 77.211 42.6602 77.0515 42.6172 76.899C42.5743 76.7466 42.501 76.6044 42.4016 76.481C42.3022 76.3577 42.1789 76.2558 42.0391 76.1813C41.8993 76.1069 41.7459 76.0616 41.5881 76.0481" fill="#0C6FFF"/>
<path fill-rule="evenodd" clip-rule="evenodd" d="M52.7424 41.9109C53.0228 41.8955 53.2885 41.7801 53.4911 41.5855C53.6937 41.3909 53.8197 41.1301 53.8463 40.8505C53.873 40.5709 53.7984 40.291 53.6362 40.0617C53.474 39.8324 53.2349 39.6688 52.9624 39.6008C50.9823 39.3075 48.9986 39.1608 47.0149 39.0508H46.2449C46.2167 37.5123 45.995 35.9835 45.5849 34.5004C45.3858 33.8258 45.1154 33.1743 44.7782 32.557C44.4632 31.9132 44.0556 31.3189 43.5682 30.7933C42.9323 30.2488 42.2431 29.7697 41.5112 29.3633C42.3338 28.4159 42.9613 27.3153 43.3577 26.1248C43.7541 24.9344 43.9116 23.6773 43.8212 22.4258C43.8471 21.2678 43.6412 20.1162 43.2157 19.0388C42.7901 17.9615 42.1534 16.9801 41.3431 16.1523C40.5328 15.3246 39.5651 14.6672 38.4971 14.2188C37.429 13.7704 36.2821 13.5401 35.1237 13.5413C32.6615 13.4695 30.2696 14.3685 28.4642 16.0443C26.6588 17.7201 25.5844 20.0384 25.4729 22.4992C25.4414 23.9351 25.7956 25.3531 26.4986 26.6055C27.2015 27.858 28.2275 28.8989 29.4696 29.62C28.5211 30.0844 27.6289 30.6467 26.7929 31.3067C25.7948 32.086 24.9494 33.0432 24.2995 34.1301C23.1355 35.9882 22.7409 38.2267 23.1995 40.3708C21.2891 40.7375 19.5254 41.1775 17.5454 41.6909C17.4143 41.7128 17.2891 41.7609 17.177 41.8323C17.0649 41.9037 16.9684 41.9969 16.8931 42.1064C16.8178 42.2159 16.7654 42.3394 16.7389 42.4696C16.7123 42.5998 16.7123 42.734 16.7387 42.8642C16.7911 43.1177 16.9374 43.342 17.1481 43.4923C17.3589 43.6426 17.6187 43.7077 17.8754 43.6746C19.8921 43.4179 21.9088 43.2712 23.9658 43.1246C26.0229 42.9779 28.7033 43.1246 31.0866 43.1246C33.47 43.1246 35.8571 42.9046 38.4274 42.8679C41.7642 42.6112 45.1816 42.2445 48.5586 42.0979C49.952 41.9659 51.3453 41.9048 52.7387 41.9145M35.1934 17.4721C36.584 17.4404 37.9309 17.9587 38.9415 18.9144C39.9521 19.8701 40.5448 21.186 40.5908 22.5762C41.8008 32.4837 28.1459 29.917 28.8096 22.5762C29.0182 21.07 29.7965 19.7012 30.9841 18.7516C32.1717 17.8021 33.6782 17.3441 35.1934 17.4721ZM38.2038 38.8345C35.4537 38.8345 32.6633 38.8345 29.9096 39.2745C28.4796 39.2745 27.0496 39.6778 25.6525 39.8978C25.7919 38.9335 26.1585 38.0168 26.7159 37.2211C27.0459 36.7811 27.4126 36.3778 27.7792 35.9378L29.4659 33.9174C30.4963 32.7807 31.413 31.6403 32.293 30.687C37.3971 31.7137 37.4338 31.6403 39.1571 30.8703C39.5605 31.457 39.9638 32.007 40.2938 32.5937C40.6238 33.1804 40.6605 33.327 40.8805 33.657C41.1005 33.9871 41.4672 34.7204 41.7972 35.2374C42.5012 36.4205 43.1257 37.6428 43.6709 38.9041L38.2038 38.8345ZM40.0775 49.512C40.0824 49.3597 40.0566 49.2079 40.0017 49.0657C39.9468 48.9236 39.8638 48.7939 39.7578 48.6844C39.6517 48.575 39.5248 48.488 39.3844 48.4285C39.2441 48.3691 39.0932 48.3386 38.9408 48.3387C36.7407 48.082 34.647 47.7886 32.4837 47.6053H29.6199C27.8232 47.6053 25.9495 47.7886 24.2225 48.0453C21.5825 48.4487 19.0524 49.1453 16.405 49.4753C16.1327 49.4753 15.8716 49.5835 15.6791 49.7761C15.4865 49.9686 15.3783 50.2297 15.3783 50.502C15.3783 50.7743 15.4865 51.0355 15.6791 51.228C15.8716 51.4205 16.1327 51.5287 16.405 51.5287C19.1038 51.7732 21.8074 51.8709 24.5159 51.8221C26.2759 51.8221 28.1863 51.5287 29.7666 51.4554L38.8308 50.7954C39.0022 50.8136 39.1755 50.7926 39.3376 50.734C39.4997 50.6754 39.6463 50.5807 39.7665 50.4571C39.8866 50.3335 39.977 50.1841 40.0309 50.0204C40.0847 49.8567 40.1007 49.6828 40.0775 49.512ZM27.7462 56.2625H24.8862C23.9475 56.3211 23.0174 56.4311 22.0958 56.5925C19.9324 56.9958 17.9121 57.6192 15.8184 58.0592C15.5487 58.087 15.2999 58.2167 15.1227 58.4218C14.9455 58.627 14.8533 58.892 14.865 59.1629C14.8743 59.2978 14.9102 59.4296 14.9706 59.5506C15.0309 59.6717 15.1146 59.7796 15.2169 59.8682C15.3191 59.9568 15.4378 60.0243 15.5662 60.0668C15.6946 60.1094 15.8301 60.1262 15.965 60.1162C18.3851 60.1162 20.8491 60.4095 23.3058 60.2995C24.6992 60.2995 26.1292 60.0795 27.5262 60.0062C29.6127 59.7817 31.7172 59.7817 33.8037 60.0062C34.1041 60.0627 34.4148 60.0033 34.6733 59.8401C34.9318 59.6768 35.1189 59.4218 35.197 59.1262C35.2348 58.9767 35.2418 58.8212 35.2176 58.6689C35.1933 58.5167 35.1384 58.371 35.0561 58.2406C34.9738 58.1103 34.8658 57.9981 34.7387 57.9108C34.6117 57.8235 34.4682 57.7629 34.317 57.7328C32.2007 56.9575 29.9914 56.4644 27.7462 56.2661" fill="#020202"/>
</svg>
